<svg xmlns="http://www.w3.org/2000/svg" xmlns:xlink="http://www.w3.org/1999/xlink" viewBox="0 0 200 200"><defs><linearGradient id="a" x1=".21" x2="170.51" y1="170.51" y2=".21" gradientUnits="userSpaceOnUse"><stop offset="0" stop-color="#e64d00"/><stop offset="1" stop-color="#4a36b3"/></linearGradient><symbol id="b" viewBox="0 0 200 200"><path fill="url(#a)" d="M199.95 47.84C198.81 20.87 175.74 0 148.75 0H50C22.39 0 0 22.39 0 50v98.76c0 26.99 20.87 50.06 47.84 51.2 23.28.98 43.23-13.95 49.84-34.85 7.2 3.72 15.13 5.6 23.03 5.6 12.8 0 25.6-4.87 35.37-14.63 15.8-15.8 18.82-39.55 9.02-58.4 20.9-6.61 35.83-26.55 34.85-49.84zM75 150c0 13.77-11.23 25-25 25s-25-11.22-25-25V95.7l50 50.02v4.27zm63.4-11.6c-4.73 4.7-11 7.3-17.7 7.3s-12.95-2.6-17.68-7.3L75 110.38l-10.35-10.37h70.7l3.02 3.02c4.73 4.73 7.33 11 7.33 17.68s-2.6 12.97-7.3 17.7zm29.28-70.72C162.96 72.4 156.68 75 150 75H50c-6.68 0-12.96-2.6-17.68-7.32S25 56.68 25 50s2.6-12.96 7.32-17.68C37.04 27.6 43.32 25 50 25h100c6.68 0 12.96 2.6 17.68 7.32 4.72 4.72 7.32 11 7.32 17.68s-2.6 12.96-7.32 17.68z"/></symbol></defs><use xlink:href="#b" width="200" height="200" transform="translate(-.47 -.47)"/></svg>